<svg width="16" height="16" viewBox="0 0 16 16" fill="none" xmlns="http://www.w3.org/2000/svg">
<path d="M12.5664 5.9914C12.704 6.0899 12.7975 6.152 12.8859 6.2197C14.0304 7.0973 14.6296 8.2559 14.765 9.6528C14.7746 9.747 14.7731 9.8426 14.782 9.9382C14.7974 10.1045 14.7569 10.2471 14.5987 10.3349C14.4404 10.4227 14.3042 10.3763 14.1688 10.2892C13.2193 9.6918 12.2688 9.0959 11.3173 8.5013L9.0657 7.093C9.0156 7.0623 8.9634 7.0345 8.8905 6.9931C8.9185 7.5303 8.9442 8.0433 8.9722 8.5556C9.0409 9.7922 9.1096 11.0305 9.1783 12.2705C9.2284 13.183 9.2718 14.0962 9.3255 15.008C9.3498 15.3982 9.1658 15.6658 8.8235 15.8206C8.58 15.9353 8.3133 15.9965 8.0426 15.9999C7.7718 16.0032 7.5036 15.9486 7.2572 15.8399C6.8604 15.6701 6.6462 15.3683 6.672 14.9231C6.7714 13.2351 6.8619 11.5463 6.9561 9.8576C7.0052 8.933 7.0565 8.0086 7.11 7.0844C7.11 7.0623 7.11 7.0402 7.1048 6.991C7.0143 7.0459 6.9377 7.0916 6.8626 7.1387L1.89789 10.2471C1.86182 10.2693 1.82429 10.2935 1.78969 10.3142C1.5041 10.474 1.20526 10.3142 1.21703 9.9974C1.27665 8.3922 1.91335 7.0723 3.2729 6.1084C3.3104 6.082 3.3465 6.0542 3.4127 6.0043C3.3185 6 3.2603 5.9943 3.2029 5.9943C2.2968 5.9943 1.39001 5.9943 0.483918 5.9943C0.302838 5.9943 0.137228 5.975 0.0422781 5.8009C-0.0526719 5.6269 0.0275476 5.4842 0.132808 5.3422C0.977078 4.205 2.0885 3.4744 3.5349 3.2846C3.9361 3.2318 4.3512 3.2753 4.7597 3.2768C4.8333 3.2768 4.8996 3.291 5.0137 3.3032C4.94 3.2233 4.8974 3.1755 4.8517 3.1312C4.0376 2.3429 3.2199 1.55735 2.4124 0.761852C2.3183 0.665442 2.2582 0.542512 2.2409 0.410842C2.2247 0.246032 2.3741 0.125462 2.5751 0.091212C4.8392 -0.318308 7.0032 0.674102 7.9424 2.6068C7.9542 2.6311 7.9704 2.6539 7.9969 2.6974C8.0323 2.6339 8.0565 2.589 8.0808 2.544C8.8537 1.10003 10.0807 0.278142 11.7347 0.0469816C12.2901 -0.0266484 12.8541 -0.012188 13.4048 0.089792C13.5667 0.118322 13.6941 0.182532 13.7493 0.343772C13.8045 0.505012 13.7323 0.629152 13.6175 0.741162L11.1495 3.1334C11.1038 3.1776 11.0619 3.2254 10.9905 3.301C11.1855 3.2825 11.3409 3.2625 11.4954 3.2539C13.3952 3.1576 14.8364 3.9438 15.9184 5.4171C15.9635 5.4704 15.9913 5.5354 15.9983 5.604C16.0052 5.6726 15.991 5.7416 15.9575 5.8024C15.8772 5.9515 15.7366 5.995 15.5732 5.995C14.6546 5.995 13.736 5.995 12.8174 5.995L12.5664 5.9914Z" fill="black"/>
</svg>
